<svg aria-hidden="true" style="position: absolute; width: 0; height: 0; overflow: hidden;" version="1.1"
    xmlns="http://www.w3.org/2000/svg"
    xmlns:xlink="http://www.w3.org/1999/xlink">
    <defs>
        <symbol id="icon-income" viewBox="0 0 28 32">
            <path d="M10.054 16.819c0-0 0-0.001 0-0.001 0-0.223-0.181-0.404-0.404-0.405h-3.916c-0.223 0-0.404 0.182-0.404 0.406v2.624c0 0.224 0.181 0.406 0.404 0.406h3.916c0.223 0 0.404-0.182 0.404-0.406v-2.624zM9.247 19.037h-3.109v-1.813h3.109v1.813zM19.659 18.974h2.175c0.223 0 0.404-0.182 0.404-0.406 0-0 0-0.001 0-0.001 0-0.223-0.181-0.404-0.404-0.405h-2.176c-0.223 0-0.404 0.182-0.404 0.406s0.181 0.406 0.404 0.406zM19.659 17.224h2.175c0.223 0 0.404-0.182 0.404-0.406 0-0 0-0.001 0-0.001 0-0.223-0.181-0.404-0.404-0.405h-2.176c-0.223 0-0.404 0.182-0.404 0.406s0.181 0.406 0.404 0.406z"></path>
            <path d="M23.576 21.197c-0.224 0-0.404 0.182-0.404 0.406v5.221c0 0 0 0 0 0 0 0.078-0.063 0.141-0.14 0.141h-18.494c-0.077-0.001-0.14-0.063-0.14-0.141 0 0 0 0 0 0v0-8.983c0-0 0-0.001 0-0.001 0-0.223-0.181-0.404-0.404-0.405h-0c-0.224 0-0.404 0.182-0.404 0.406v8.984c0 0.525 0.425 0.953 0.948 0.953h18.494c0.524-0.002 0.948-0.427 0.948-0.951 0-0.001 0-0.001 0-0.002v0-5.222c0-0 0-0.001 0-0.001 0-0.223-0.181-0.404-0.404-0.405h-0zM23.032 13.843h-6.667v-2.059c2.106-1.008 3.535-3.123 3.535-5.571 0-0.001 0-0.001 0-0.002v0c0-3.389-2.743-6.147-6.115-6.147-1.17 0-2.308 0.334-3.29 0.964-0.952 0.618-1.708 1.466-2.199 2.467l-0.016 0.036c-0.026 0.052-0.041 0.113-0.041 0.177 0 0.159 0.092 0.298 0.225 0.364l0.002 0.001c0.051 0.026 0.112 0.040 0.176 0.040 0.159 0 0.297-0.092 0.362-0.226l0.001-0.002c0.896-1.857 2.727-3.009 4.778-3.009 2.927 0 5.307 2.393 5.307 5.335s-2.38 5.335-5.307 5.335-5.307-2.393-5.307-5.335c0-0.208 0.012-0.417 0.035-0.621 0.002-0.014 0.003-0.030 0.003-0.047 0-0.223-0.181-0.404-0.404-0.404-0.207 0-0.377 0.155-0.401 0.355l-0 0.002c-0.027 0.236-0.040 0.476-0.040 0.715 0 2.463 1.449 4.593 3.535 5.572v2.059h-6.667c-0.524 0.002-0.948 0.427-0.948 0.951 0 0.001 0 0.001 0 0.002v-0 1.141c0 0.225 0.181 0.406 0.404 0.406s0.404-0.182 0.404-0.406v-1.141c0-0.078 0.063-0.141 0.14-0.141h5.256l3.687 4.235c0.074 0.085 0.183 0.138 0.304 0.138s0.229-0.053 0.303-0.137l0-0 3.687-4.235h5.256c0.077 0 0.14 0.063 0.14 0.141v4.902c0 0.224 0.181 0.406 0.404 0.406s0.404-0.182 0.404-0.406v-4.902c0-0 0-0.001 0-0.002 0-0.524-0.424-0.949-0.947-0.952h-0zM13.785 18.006l-2.917-3.352h0.741c0.223 0 0.404-0.182 0.404-0.406v-2.154c0.561 0.171 1.156 0.263 1.772 0.263s1.211-0.093 1.772-0.263v2.154c0 0.224 0.181 0.406 0.404 0.406h0.742l-2.917 3.352z"></path>
            <path d="M5.734 23.84h1.088c0.223 0 0.404-0.182 0.404-0.406 0-0 0-0.001 0-0.001 0-0.223-0.181-0.404-0.404-0.405h-1.088c-0.223 0-0.404 0.182-0.404 0.406s0.181 0.406 0.404 0.406zM9.651 23.029h-1.088c-0.223 0-0.404 0.182-0.404 0.406s0.181 0.406 0.404 0.406h1.088c0.223 0 0.404-0.182 0.404-0.406 0-0 0-0.001 0-0.001 0-0.223-0.181-0.404-0.404-0.405h-0zM12.479 23.84c0.223 0 0.404-0.182 0.404-0.406 0-0 0-0.001 0-0.001 0-0.223-0.181-0.404-0.404-0.405h-1.088c-0.223 0-0.404 0.182-0.404 0.406s0.181 0.406 0.404 0.406h1.088zM15.307 23.84c0.223 0 0.404-0.182 0.404-0.406 0-0 0-0.001 0-0.001 0-0.223-0.181-0.404-0.404-0.405h-1.088c-0.223 0-0.404 0.182-0.404 0.406s0.181 0.406 0.404 0.406h1.088zM5.734 26.027h4.352c0.223 0 0.404-0.182 0.404-0.406 0-0 0-0.001 0-0.001 0-0.223-0.181-0.404-0.404-0.405h-4.352c-0.223 0-0.404 0.182-0.404 0.406s0.181 0.406 0.404 0.406zM17.080 24.528c0 0.827 0.67 1.5 1.492 1.5 0.428 0 0.815-0.183 1.088-0.475 0.272 0.293 0.659 0.475 1.088 0.475v0c0.822 0 1.492-0.673 1.492-1.5s-0.67-1.5-1.492-1.5c-0.429 0-0.816 0.183-1.088 0.475-0.272-0.293-0.659-0.475-1.088-0.475v0c-0.825 0.003-1.492 0.673-1.492 1.498 0 0.001 0 0.001 0 0.002v-0zM20.747 23.84c0.377 0 0.684 0.309 0.684 0.688s-0.307 0.687-0.684 0.687c-0.377 0-0.684-0.308-0.684-0.687s0.307-0.688 0.684-0.688zM19.256 24.528c0 0.379-0.307 0.687-0.684 0.687s-0.684-0.308-0.684-0.687c0-0.379 0.307-0.688 0.684-0.688s0.684 0.309 0.684 0.688zM12.447 8.336c-0.062-0.041-0.139-0.066-0.221-0.066-0.141 0-0.265 0.072-0.337 0.182l-0.001 0.002c-0.041 0.063-0.066 0.139-0.066 0.222 0 0.141 0.072 0.265 0.181 0.339l0.001 0.001c0.522 0.344 0.879 0.446 1.34 0.471v0.447c0 0.224 0.181 0.406 0.404 0.406s0.404-0.182 0.404-0.406v-0.479c0.916-0.179 1.45-0.937 1.569-1.645 0.152-0.909-0.321-1.699-1.205-2.014-0.12-0.042-0.241-0.087-0.363-0.133v-1.947c0.308 0.073 0.492 0.229 0.508 0.243 0.071 0.065 0.167 0.105 0.271 0.105 0.117 0 0.223-0.050 0.297-0.131l0-0c0.066-0.072 0.107-0.169 0.107-0.275 0-0.118-0.050-0.224-0.13-0.298l-0-0c-0.023-0.022-0.414-0.375-1.053-0.47v-0.4c0-0 0-0.001 0-0.001 0-0.223-0.181-0.404-0.404-0.405h-0c-0.223 0-0.404 0.182-0.404 0.406v0.431c-0.062 0.014-0.124 0.030-0.188 0.049-0.582 0.176-1.017 0.677-1.135 1.307-0.108 0.575 0.075 1.128 0.477 1.445 0.214 0.169 0.48 0.323 0.845 0.486v2.466c-0.318-0.023-0.537-0.1-0.897-0.337zM12.997 5.082c-0.164-0.129-0.234-0.381-0.182-0.656 0.046-0.248 0.21-0.546 0.529-0.665v1.542c-0.133-0.071-0.246-0.144-0.353-0.226l0.006 0.004zM14.246 6.561c0.757 0.269 0.71 0.921 0.678 1.114-0.063 0.379-0.326 0.779-0.772 0.937v-2.084l0.094 0.033z"></path>
        </symbol>
        <symbol id="icon-logo" viewBox="0 0 33 31">
            <path d="M30.0222 23.6646C30.0494 23.983 29.8009 24.2566 29.4846 24.2566H3.46924C3.15373 24.2566 2.90553 23.9843 2.93156 23.6665L4.7959 0.912269C4.8191 0.629618 5.05287 0.412109 5.33372 0.412109H27.5426C27.8226 0.412109 28.0561 0.628527 28.0801 0.910361L30.0222 23.6646Z" fill="#1DCF65"/>
            <path d="M32.0988 29.6014C32.1313 29.9985 31.8211 30.339 31.4268 30.339H1.59438C1.2009 30.339 0.890922 30.0002 0.922082 29.6037L3.06376 2.34718C3.09168 1.9927 3.38426 1.71973 3.73606 1.71973H29.1958C29.5468 1.71973 29.8391 1.99161 29.868 2.34499L32.0988 29.6014Z" fill="url(#paint0_linear_150_362)"/>
            <path d="M15.9232 21.6953C12.0402 21.6953 8.88135 17.8631 8.88135 13.1528C8.88135 12.9075 9.07815 12.7085 9.32109 12.7085C9.56403 12.7085 9.76084 12.9073 9.76084 13.1528C9.76084 17.3732 12.5253 20.8067 15.9234 20.8067C19.3214 20.8067 22.0859 17.3732 22.0859 13.1528C22.0859 12.9075 22.2827 12.7085 22.5257 12.7085C22.7686 12.7085 22.9654 12.9073 22.9654 13.1528C22.9653 17.8631 19.8062 21.6953 15.9232 21.6953Z" fill="white"/>
            <path d="M20.2581 13.0337C20.1456 13.0337 20.0331 12.9904 19.9471 12.9036C19.7754 12.7301 19.7754 12.4488 19.9471 12.2753L22.226 9.97292C22.3084 9.88966 22.4203 9.84277 22.5369 9.84277C22.6536 9.84277 22.7654 9.88952 22.8479 9.97292L25.1045 12.2529C25.2762 12.4264 25.2762 12.7077 25.1045 12.8812C24.9327 13.0546 24.6543 13.0547 24.4826 12.8812L22.5368 10.9155L20.569 12.9036C20.4831 12.9904 20.3706 13.0337 20.2581 13.0337Z" fill="white"/>
            <defs>
            <linearGradient id="paint0_linear_150_362" x1="25.8733" y1="26.3337" x2="7.51325" y2="4.9008" gradientUnits="userSpaceOnUse">
            <stop stop-color="#52D67A"/>
            <stop offset="1" stop-color="#5AEE87"/>
            </linearGradient>
            </defs>
        </symbol> 
        <symbol id="icon-down" viewwBox="0 0 8 4">
            <path d="M1 0.5L4 3.5L7 0.5" stroke="black" stroke-linecap="round" stroke-linejoin="round"/>
        </symbol>
        <symbol id="icon-cart" viewwBox="0 0 52 52">
            <circle cx="26" cy="26" r="26" fill="#5ECE7B"/>
            <path d="M37.4736 19.8484C37.0186 19.2925 36.3109 18.9546 35.5785 18.9546H20.1907L19.711 17.1669C19.4326 16.1277 18.4732 15.4028 17.3608 15.4028H14.7837C14.3544 15.4028 14 15.7407 14 16.1523C14 16.5628 14.3534 16.9017 14.7837 16.9017H17.3608C17.7398 16.9017 18.0685 17.1433 18.1692 17.5058L21.2517 29.2494C21.53 30.2886 22.4894 31.0135 23.6018 31.0135H33.6833C34.7947 31.0135 35.7808 30.2886 36.0335 29.2494L37.9286 21.807C38.1053 21.1293 37.9543 20.4044 37.4736 19.8485L37.4736 19.8484ZM36.3879 21.4671L34.4928 28.9095C34.3921 29.272 34.0634 29.5136 33.6844 29.5136H23.6018C23.2228 29.5136 22.8941 29.272 22.7935 28.9095L20.5953 20.4772H35.5796C35.8323 20.4772 36.085 20.598 36.237 20.7915C36.388 20.984 36.463 21.2257 36.388 21.4673L36.3879 21.4671Z" fill="white"/>
            <path d="M24.1332 31.9778C22.6932 31.9778 21.5059 33.1132 21.5059 34.4902C21.5059 35.8672 22.6933 37.0027 24.1332 37.0027C25.5733 37.0036 26.7606 35.8682 26.7606 34.491C26.7606 33.1137 25.5732 31.9775 24.1332 31.9775V31.9778ZM24.1332 35.4814C23.5519 35.4814 23.0968 35.0463 23.0968 34.4903C23.0968 33.9344 23.5519 33.4993 24.1332 33.4993C24.7146 33.4993 25.1696 33.9344 25.1696 34.4903C25.1687 35.0227 24.689 35.4814 24.1332 35.4814Z" fill="white"/>
            <path d="M32.8251 31.978C31.3851 31.978 30.1978 33.1135 30.1978 34.4905C30.1978 35.8675 31.3852 37.0029 32.8251 37.0029C34.2651 37.0029 35.4525 35.8675 35.4525 34.4905C35.4279 33.1143 34.2651 31.978 32.8251 31.978ZM32.8251 35.4816C32.2438 35.4816 31.7887 35.0465 31.7887 34.4906C31.7887 33.9346 32.2438 33.4995 32.8251 33.4995C33.4065 33.4995 33.8615 33.9346 33.8615 34.4906C33.8615 35.0229 33.3809 35.4816 32.8251 35.4816Z" fill="white"/>
        </symbol>
    </defs>
</svg>